<svg width="68" height="77" viewBox="0 0 68 77" fill="none" xmlns="http://www.w3.org/2000/svg">
<g clip-path="url(#clip0_2_3352)">
<path d="M38.6952 5.09658C38.3445 4.40428 37.7821 3.84186 37.0898 3.49108C36.7411 3.31584 36.3696 3.19041 35.986 3.11848C35.5921 3.04684 35.193 3.00728 34.7926 3.00018C34.425 2.98878 33.9379 3.00018 33.551 3.00018H20.8273C20.6623 3.00018 20.4997 3.00018 20.3383 3.00068C19.7255 2.98281 19.1123 3.02225 18.5068 3.11848C18.1232 3.19048 17.7516 3.3159 17.4028 3.49108C16.7109 3.84217 16.1487 4.40451 15.7978 5.09658C15.6227 5.44525 15.4973 5.81672 15.4252 6.20018C15.3648 6.52419 15.3281 6.85215 15.3152 7.18148C15.2996 7.50668 15.2976 7.85918 15.2971 8.19428V8.63518V44.3512C15.2971 44.5001 15.2971 44.647 15.2971 44.7921C15.2971 45.1272 15.2996 45.4797 15.3152 45.805C15.3281 46.1343 15.3649 46.4623 15.4252 46.7863C15.4973 47.1698 15.6227 47.5414 15.7978 47.8902C16.1487 48.5824 16.7111 49.1448 17.4032 49.4958C17.752 49.6709 18.1236 49.7963 18.5072 49.8683C18.9012 49.94 19.3003 49.9796 19.7006 49.9868C20.068 49.9982 20.5553 49.9968 20.9423 49.9968C25.6633 49.9968 27.2879 50.0002 32.0088 50.0002C31.8905 49.9002 31.7888 49.7617 31.6388 49.6379C31.4415 49.4326 31.2628 49.2102 31.1047 48.9734C30.9122 48.6931 30.7617 48.3863 30.658 48.0625C30.5531 47.7302 30.472 47.3908 30.4153 47.047C30.3594 46.7495 30.3256 46.4482 30.3142 46.1457C30.2995 45.8468 30.2976 45.5233 30.2971 45.2157C30.2971 45.081 30.2971 44.9451 30.2971 44.8071V11.1934C30.2971 11.0554 30.2971 10.9196 30.2971 10.785C30.2971 10.4772 30.2995 10.1536 30.3142 9.85498C30.3259 9.55246 30.3597 9.25119 30.4153 8.95358C30.4815 8.60074 30.5968 8.25894 30.758 7.93818C31.0807 7.30138 31.598 6.78403 32.2348 6.46128C32.5557 6.30009 32.8976 6.18473 33.2505 6.11858C33.8017 6.02745 34.3602 5.98811 34.9187 6.00108C35.0798 6.00018 35.2428 6.00018 35.4084 6.00018H39.1619M25.6318 9.68098C25.6318 9.94488 25.6318 10.1286 25.6313 10.2822C25.6308 10.4332 25.6293 10.5583 25.6254 10.6732C25.6204 10.8983 25.595 11.1226 25.5497 11.3432C25.5015 11.5735 25.4216 11.796 25.3122 12.0044C25.0849 12.4355 24.7326 12.7879 24.3014 13.0152C24.093 13.1244 23.8706 13.2043 23.6403 13.2528C23.4197 13.298 23.1955 13.3233 22.9703 13.3284C22.8553 13.3324 22.7303 13.3338 22.5792 13.3342C22.4256 13.3349 22.2418 13.3348 21.9779 13.3348H20.6161C20.3522 13.3348 20.1684 13.3348 20.0148 13.3342C19.8637 13.3342 19.7387 13.3324 19.6237 13.3284C19.3986 13.3233 19.1743 13.298 18.9537 13.2528C18.7235 13.2043 18.501 13.1244 18.2926 13.0152C17.8615 12.7879 17.5091 12.4355 17.2818 12.0044C17.1725 11.796 17.0925 11.5735 17.0443 11.3432C16.999 11.1226 16.9737 10.8983 16.9686 10.6732C16.9647 10.5583 16.9632 10.4332 16.9627 10.2822C16.9622 10.1285 16.9622 9.94488 16.9622 9.68098V8.31938C16.9622 8.05538 16.9622 7.87178 16.9627 7.71818C16.9627 7.56698 16.9647 7.44188 16.9686 7.32708C16.9737 7.10193 16.999 6.87769 17.0443 6.65708C17.0927 6.42681 17.1726 6.20431 17.2818 5.99588C17.509 5.56469 17.8612 5.21222 18.2922 4.98468C18.5006 4.87548 18.7231 4.79553 18.9533 4.74708C19.1739 4.70187 19.3982 4.67657 19.6233 4.67148C19.7383 4.66748 19.8633 4.66618 20.0144 4.66558H20.6157H21.9775H22.5788C22.7299 4.66618 22.8549 4.66748 22.9697 4.67148C23.1951 4.67653 23.4195 4.70183 23.6403 4.74708C23.8706 4.79553 24.093 4.87548 24.3014 4.98468C24.7325 5.21205 25.0849 5.56438 25.3122 5.99548C25.4215 6.20386 25.5015 6.42637 25.5497 6.65668C25.595 6.87729 25.6204 7.10153 25.6254 7.32668C25.6293 7.44158 25.6308 7.56668 25.6313 7.71778C25.6318 7.87148 25.6318 8.05508 25.6318 8.31898V9.68098ZM50.2968 24.3082V45.6921C50.2624 46.0693 50.081 46.4178 49.7919 46.6625C49.5028 46.9073 49.1291 47.0285 48.7514 47.0002H35.8422C35.4645 47.0285 35.0908 46.9073 34.8017 46.6625C34.5126 46.4178 34.3313 46.0693 34.2968 45.6921V24.3133C34.3313 23.9347 34.5133 23.5848 34.8035 23.3392C35.0936 23.0935 35.4687 22.9718 35.8478 23.0002H48.7516C49.1293 22.9718 49.503 23.0931 49.7921 23.3378C50.0811 23.5825 50.2624 23.931 50.2968 24.3082ZM53.2968 11.8216C53.2963 11.5138 53.2946 11.1902 53.2802 10.8916C53.2683 10.5891 53.2344 10.2878 53.1788 9.99018C53.1127 9.63734 52.9973 9.29554 52.8361 8.97478C52.5132 8.33814 51.996 7.82088 51.3593 7.49798C51.0385 7.33669 50.6966 7.22129 50.3436 7.15518C49.9813 7.08917 49.6142 7.05271 49.246 7.04618C48.9078 7.03618 48.4596 7.03698 48.1036 7.03698H36.3836C36.218 7.03698 36.055 7.03698 35.8936 7.03778C35.3351 7.02473 34.7766 7.06404 34.2254 7.15518C33.8725 7.22132 33.5306 7.33671 33.2097 7.49798C32.5729 7.82058 32.0556 8.33784 31.7328 8.97458C31.5716 9.2954 31.4562 9.63727 31.3901 9.99018C31.3345 10.2878 31.3007 10.5891 31.289 10.8916C31.2743 11.1904 31.2975 11.514 31.297 11.8216V12.2301V44.8069V45.2155C31.297 45.5233 31.2743 45.8468 31.289 46.1455C31.3007 46.448 31.3345 46.7492 31.3901 47.0468C31.4562 47.3997 31.5716 47.7415 31.7328 48.0623C32.0555 48.6991 32.5728 49.2164 33.2096 49.5392C33.5305 49.7003 33.8724 49.8156 34.2253 49.8819C34.5877 49.9479 34.9549 49.9844 35.3232 49.9908C35.6611 50.0013 36.1093 49.9999 36.4653 49.9999H48.1853H48.6753C49.2337 50.0128 49.7921 49.9735 50.3432 49.8824C50.6961 49.8162 51.038 49.7008 51.3589 49.5397C51.9955 49.2167 52.5128 48.6994 52.8357 48.0628C52.9969 47.742 53.1123 47.4002 53.1784 47.0473C53.234 46.7497 53.2679 46.4485 53.2798 46.146C53.2942 45.8471 53.2959 45.5236 53.2964 45.216C53.2964 45.0813 53.2964 44.9454 53.2964 44.8074V12.2302C53.2968 12.0921 53.2968 11.9563 53.2968 11.8216ZM32.9611 11.705C32.9618 11.5544 32.963 11.4297 32.9669 11.315C32.9719 11.0905 32.9971 10.867 33.0421 10.6471C33.0906 10.4177 33.1704 10.196 33.2792 9.98828C33.5054 9.55884 33.8563 9.20794 34.2858 8.98178C34.4935 8.87296 34.7151 8.79327 34.9445 8.74498C35.1645 8.69993 35.388 8.67473 35.6125 8.66968C35.7267 8.66578 35.8513 8.66448 36.0019 8.66388C36.155 8.66328 36.3381 8.66388 36.601 8.66388H37.9926H38.4479C38.5944 8.66388 38.7563 8.66388 38.9033 8.66758C39.2072 8.66838 39.5097 8.70721 39.8039 8.78318C40.1386 8.87295 40.4501 9.03365 40.7172 9.25438C40.9843 9.47511 41.2008 9.75071 41.352 10.0625C41.4942 10.3634 41.5809 10.6874 41.6081 11.0191C41.6235 11.1772 41.6291 11.3355 41.6313 11.5191C41.6335 11.6869 41.633 11.9486 41.633 12.3042V13.6969C41.633 13.9597 41.633 14.1427 41.6325 14.2957C41.6318 14.4462 41.6305 14.5709 41.6266 14.6852C41.6215 14.9096 41.5963 15.1332 41.5512 15.3531C41.503 15.5825 41.4234 15.8042 41.3146 16.0119C41.0881 16.4414 40.737 16.7924 40.3075 17.0189C40.0999 17.1277 39.8783 17.2073 39.6489 17.2556C39.429 17.3006 39.2054 17.3258 38.9809 17.3308C38.8666 17.3348 38.7419 17.3362 38.5915 17.3367C38.4382 17.3373 38.2553 17.3367 37.9924 17.3367H36.601C36.2453 17.3367 35.9836 17.3367 35.8159 17.335C35.6323 17.3327 35.4741 17.3271 35.3159 17.3118C34.9842 17.2848 34.6601 17.198 34.3593 17.0556C34.1172 16.9383 33.8964 16.7814 33.706 16.5912C33.4066 16.2906 33.1908 15.917 33.08 15.5075C33.0041 15.2133 32.9652 14.9107 32.9643 14.6069C32.9606 14.46 32.9606 14.2981 32.9606 14.1515C32.9606 13.9999 32.9606 13.8486 32.9606 13.6965V12.3038C32.9606 12.0409 32.9604 11.8579 32.9609 11.705H32.9611ZM51.2968 45.6921C51.2638 46.3351 50.9775 46.939 50.5005 47.3715C50.0235 47.804 49.3946 48.0301 48.7514 48.0002H35.8422C35.199 48.0301 34.5701 47.804 34.0931 47.3715C33.6161 46.939 33.3298 46.3351 33.2968 45.6921V24.3133C33.3299 23.6688 33.6168 23.0637 34.0949 22.6302C34.5729 22.1967 35.2032 21.9702 35.8478 22.0002H48.7516C49.3948 21.9703 50.0236 22.1963 50.5006 22.6289C50.9775 23.0614 51.2638 23.6652 51.2968 24.3082V45.6921Z" fill="#1D1D1F"/>
</g>
<path d="M1.2957 73H2.40312L3.25273 70.5801H6.61601L7.46562 73H8.57304L5.45586 64.5449H4.41289L1.2957 73ZM4.8875 65.9102H4.98125L6.30547 69.6836H3.56328L4.8875 65.9102ZM12.039 73.1113C13.5566 73.1113 14.4062 72.2969 14.664 71.1543L14.6757 71.0898L13.6679 71.0957L13.6562 71.1309C13.4218 71.834 12.8827 72.209 12.0331 72.209C10.9081 72.209 10.1816 71.2773 10.1816 69.8242V69.8125C10.1816 68.3887 10.8964 67.4746 12.0331 67.4746C12.9413 67.4746 13.5038 67.9785 13.662 68.5996L13.6679 68.6172H14.6816L14.6757 68.582C14.4882 67.457 13.5683 66.5723 12.0331 66.5723C10.2636 66.5723 9.13859 67.8496 9.13859 69.8125V69.8242C9.13859 71.8281 10.2695 73.1113 12.039 73.1113ZM18.6338 73.1113C20.1514 73.1113 21.001 72.2969 21.2588 71.1543L21.2705 71.0898L20.2627 71.0957L20.251 71.1309C20.0166 71.834 19.4776 72.209 18.628 72.209C17.503 72.209 16.7764 71.2773 16.7764 69.8242V69.8125C16.7764 68.3887 17.4912 67.4746 18.628 67.4746C19.5362 67.4746 20.0987 67.9785 20.2569 68.5996L20.2627 68.6172H21.2764L21.2705 68.582C21.083 67.457 20.1631 66.5723 18.628 66.5723C16.8584 66.5723 15.7334 67.8496 15.7334 69.8125V69.8242C15.7334 71.8281 16.8643 73.1113 18.6338 73.1113ZM25.2228 73.1113C26.7111 73.1113 27.6134 72.2676 27.8302 71.4121L27.8419 71.3652H26.8224L26.799 71.418C26.6291 71.7988 26.1017 72.2031 25.2462 72.2031C24.1212 72.2031 23.4005 71.4414 23.3712 70.1348H27.9181V69.7363C27.9181 67.8496 26.8752 66.5723 25.1584 66.5723C23.4416 66.5723 22.3283 67.9082 22.3283 69.8594V69.8652C22.3283 71.8457 23.4181 73.1113 25.2228 73.1113ZM25.1525 67.4805C26.0841 67.4805 26.7755 68.0723 26.881 69.3203H23.3888C23.5002 68.1191 24.215 67.4805 25.1525 67.4805ZM31.5481 73.1113C32.9837 73.1113 34.0794 72.332 34.0794 71.207V71.1953C34.0794 70.293 33.5052 69.7773 32.3157 69.4902L31.343 69.2559C30.5989 69.0742 30.2825 68.8047 30.2825 68.377V68.3652C30.2825 67.8086 30.8333 67.4219 31.5833 67.4219C32.345 67.4219 32.8372 67.7676 32.972 68.2656H33.9739C33.8333 67.2344 32.9134 66.5723 31.5891 66.5723C30.2473 66.5723 29.2395 67.3633 29.2395 68.4121V68.418C29.2395 69.3262 29.7727 69.8418 30.9563 70.123L31.9348 70.3574C32.7141 70.5449 33.0364 70.8438 33.0364 71.2715V71.2832C33.0364 71.8574 32.4329 72.2617 31.5833 72.2617C30.7747 72.2617 30.2708 71.916 30.1009 71.3887H29.0579C29.1751 72.4316 30.1419 73.1113 31.5481 73.1113ZM37.5922 73.1113C39.0277 73.1113 40.1234 72.332 40.1234 71.207V71.1953C40.1234 70.293 39.5492 69.7773 38.3598 69.4902L37.3871 69.2559C36.643 69.0742 36.3266 68.8047 36.3266 68.377V68.3652C36.3266 67.8086 36.8773 67.4219 37.6273 67.4219C38.3891 67.4219 38.8812 67.7676 39.016 68.2656H40.018C39.8773 67.2344 38.9574 66.5723 37.6332 66.5723C36.2914 66.5723 35.2836 67.3633 35.2836 68.4121V68.418C35.2836 69.3262 35.8168 69.8418 37.0004 70.123L37.9789 70.3574C38.7582 70.5449 39.0805 70.8438 39.0805 71.2715V71.2832C39.0805 71.8574 38.477 72.2617 37.6273 72.2617C36.8187 72.2617 36.3148 71.916 36.1449 71.3887H35.102C35.2191 72.4316 36.1859 73.1113 37.5922 73.1113ZM44.1812 73.1113C45.98 73.1113 47.0933 71.8691 47.0933 69.8477V69.8359C47.0933 67.8086 45.98 66.5723 44.1812 66.5723C42.3823 66.5723 41.2691 67.8086 41.2691 69.8359V69.8477C41.2691 71.8691 42.3823 73.1113 44.1812 73.1113ZM44.1812 72.209C42.9859 72.209 42.312 71.3359 42.312 69.8477V69.8359C42.312 68.3418 42.9859 67.4746 44.1812 67.4746C45.3765 67.4746 46.0503 68.3418 46.0503 69.8359V69.8477C46.0503 71.3359 45.3765 72.209 44.1812 72.209ZM48.5553 73H49.5748V69.0859C49.5748 68.1602 50.2662 67.5449 51.2389 67.5449C51.4616 67.5449 51.6549 67.5684 51.8659 67.6035V66.6133C51.7662 66.5957 51.5494 66.5723 51.3561 66.5723C50.5006 66.5723 49.9088 66.959 49.6686 67.6211H49.5748V66.6836H48.5553V73ZM53.5447 65.4648C53.9314 65.4648 54.2478 65.1484 54.2478 64.7617C54.2478 64.375 53.9314 64.0586 53.5447 64.0586C53.158 64.0586 52.8416 64.375 52.8416 64.7617C52.8416 65.1484 53.158 65.4648 53.5447 65.4648ZM53.0291 73H54.0486V66.6836H53.0291V73ZM58.4286 73.1113C59.9169 73.1113 60.8192 72.2676 61.036 71.4121L61.0477 71.3652H60.0282L60.0048 71.418C59.8348 71.7988 59.3075 72.2031 58.452 72.2031C57.327 72.2031 56.6063 71.4414 56.577 70.1348H61.1239V69.7363C61.1239 67.8496 60.0809 66.5723 58.3641 66.5723C56.6473 66.5723 55.5341 67.9082 55.5341 69.8594V69.8652C55.5341 71.8457 56.6239 73.1113 58.4286 73.1113ZM58.3583 67.4805C59.2899 67.4805 59.9813 68.0723 60.0868 69.3203H56.5946C56.7059 68.1191 57.4208 67.4805 58.3583 67.4805ZM64.7539 73.1113C66.1894 73.1113 67.2852 72.332 67.2852 71.207V71.1953C67.2852 70.293 66.7109 69.7773 65.5215 69.4902L64.5488 69.2559C63.8047 69.0742 63.4883 68.8047 63.4883 68.377V68.3652C63.4883 67.8086 64.0391 67.4219 64.7891 67.4219C65.5508 67.4219 66.043 67.7676 66.1777 68.2656H67.1797C67.0391 67.2344 66.1191 66.5723 64.7949 66.5723C63.4531 66.5723 62.4453 67.3633 62.4453 68.4121V68.418C62.4453 69.3262 62.9785 69.8418 64.1621 70.123L65.1406 70.3574C65.9199 70.5449 66.2422 70.8438 66.2422 71.2715V71.2832C66.2422 71.8574 65.6387 72.2617 64.7891 72.2617C63.9805 72.2617 63.4766 71.916 63.3066 71.3887H62.2637C62.3809 72.4316 63.3477 73.1113 64.7539 73.1113Z" fill="#1D1D1F"/>
<defs>
<clipPath id="clip0_2_3352">
<rect width="40" height="54" fill="white" transform="translate(14.2969)"/>
</clipPath>
</defs>
</svg>
