<svg width="52" height="77" viewBox="0 0 52 77" fill="none" xmlns="http://www.w3.org/2000/svg">
<g clip-path="url(#clip0_2_3333)">
<path d="M17.7656 13H8.76562C7.30747 13.0017 5.90954 13.5818 4.87847 14.6128C3.8474 15.6439 3.26737 17.0418 3.26563 18.5L3.26562 44.5C3.26745 45.9581 3.8475 47.356 4.87855 48.3871C5.90961 49.4181 7.30749 49.9982 8.76562 50H17.7656C19.2238 49.9982 20.6216 49.4181 21.6527 48.3871C22.6838 47.356 23.2638 45.9581 23.2656 44.5V18.5C23.2639 17.0418 22.6839 15.6439 21.6528 14.6128C20.6217 13.5818 19.2238 13.0017 17.7656 13ZM21.2656 44.5C21.2645 45.4279 20.8954 46.3175 20.2393 46.9736C19.5831 47.6298 18.6935 47.9989 17.7656 48H8.76562C7.83771 47.9989 6.94812 47.6298 6.29198 46.9736C5.63584 46.3175 5.26674 45.4279 5.26562 44.5V18.5C5.26674 17.5721 5.63584 16.6825 6.29198 16.0264C6.94812 15.3702 7.83771 15.0011 8.76562 15H17.7656C18.6935 15.0011 19.5831 15.3702 20.2393 16.0264C20.8954 16.6825 21.2645 17.5721 21.2656 18.5V44.5ZM47.2656 36.5H48.2656V42.5H47.2656V36.5ZM35.2656 13H41.2656V14H35.2656V13ZM47.2656 28.5H48.2656V34.5H47.2656V28.5ZM35.2656 49H41.2656V50H35.2656V49ZM29.2656 34.5H28.2656V28.5H29.2656V34.5ZM29.2656 26.5H28.2656V20.5H29.2656V26.5ZM29.2656 42.5H28.2656V36.5H29.2656V42.5ZM43.2656 14.05V13.0253C44.6312 13.1512 45.9005 13.7822 46.8253 14.7948C47.7501 15.8074 48.2637 17.1287 48.2656 18.5H47.2656C47.2635 17.396 46.8543 16.3315 46.1162 15.5104C45.3782 14.6893 44.3632 14.1693 43.2656 14.05ZM47.2656 44.5H48.2656C48.2637 45.8713 47.7501 47.1926 46.8253 48.2052C45.9005 49.2178 44.6312 49.8488 43.2656 49.9747V48.95C44.3632 48.8307 45.3782 48.3107 46.1162 47.4896C46.8543 46.6685 47.2635 45.604 47.2656 44.5ZM33.2656 13.0253V14.05C32.1681 14.1693 31.1531 14.6893 30.415 15.5104C29.6769 16.3315 29.2677 17.396 29.2656 18.5H28.2656C28.2675 17.1287 28.7811 15.8074 29.7059 14.7948C30.6307 13.7822 31.9001 13.1512 33.2656 13.0253ZM33.2656 48.95V49.9751C31.9 49.8492 30.6306 49.2181 29.7058 48.2054C28.781 47.1928 28.2674 45.8714 28.2656 44.5H29.2656C29.2677 45.604 29.6769 46.6685 30.415 47.4896C31.1531 48.3107 32.1681 48.8307 33.2656 48.95ZM47.2656 20.5H48.2656V26.5H47.2656V20.5Z" fill="#1D1D1F"/>
</g>
<path d="M5.05766 73.1992C6.85649 73.1992 8.19242 72.1973 8.47367 70.6504V70.6387H7.40727L7.39555 70.6504C7.13188 71.623 6.23539 72.2266 5.05766 72.2266C3.42875 72.2266 2.40922 70.8965 2.40922 68.7812V68.7695C2.40922 66.6543 3.42875 65.3184 5.0518 65.3184C6.21781 65.3184 7.12016 66.0039 7.40141 67.0879L7.40727 67.0996H8.46781L8.47367 67.0879C8.22172 65.4648 6.83305 64.3457 5.0518 64.3457C2.75492 64.3457 1.32524 66.0449 1.32524 68.7695V68.7812C1.32524 71.5 2.76078 73.1992 5.05766 73.1992ZM12.59 73.1113C14.3888 73.1113 15.5021 71.8691 15.5021 69.8477V69.8359C15.5021 67.8086 14.3888 66.5723 12.59 66.5723C10.7912 66.5723 9.67789 67.8086 9.67789 69.8359V69.8477C9.67789 71.8691 10.7912 73.1113 12.59 73.1113ZM12.59 72.209C11.3947 72.209 10.7209 71.3359 10.7209 69.8477V69.8359C10.7209 68.3418 11.3947 67.4746 12.59 67.4746C13.7853 67.4746 14.4591 68.3418 14.4591 69.8359V69.8477C14.4591 71.3359 13.7853 72.209 12.59 72.209ZM16.9641 73H17.9837V69.0859C17.9837 68.1953 18.6106 67.4746 19.4368 67.4746C20.2337 67.4746 20.7493 67.9609 20.7493 68.7109V73H21.7688V68.9395C21.7688 68.1367 22.3489 67.4746 23.2278 67.4746C24.1184 67.4746 24.5462 67.9375 24.5462 68.8691V73H25.5657V68.6348C25.5657 67.3105 24.845 66.5723 23.5559 66.5723C22.6829 66.5723 21.9622 67.0117 21.6223 67.6797H21.5286C21.2356 67.0234 20.638 66.5723 19.7825 66.5723C18.9563 66.5723 18.3587 66.9648 18.0774 67.6445H17.9837V66.6836H16.9641V73ZM27.2855 75.1094H28.3051V72.0039H28.3988C28.7445 72.6777 29.5004 73.1113 30.3676 73.1113C31.973 73.1113 33.016 71.8281 33.016 69.8477V69.8359C33.016 67.8672 31.9672 66.5723 30.3676 66.5723C29.4887 66.5723 28.7855 66.9883 28.3988 67.6914H28.3051V66.6836H27.2855V75.1094ZM30.1332 72.209C28.9848 72.209 28.2816 71.3066 28.2816 69.8477V69.8359C28.2816 68.377 28.9848 67.4746 30.1332 67.4746C31.2875 67.4746 31.973 68.3652 31.973 69.8359V69.8477C31.973 71.3184 31.2875 72.209 30.1332 72.209ZM36.2241 73.1113C37.0738 73.1113 37.7359 72.7422 38.1343 72.0684H38.2281V73H39.2476V68.6758C39.2476 67.3633 38.3863 66.5723 36.8452 66.5723C35.4976 66.5723 34.5366 67.2402 34.3726 68.2305L34.3667 68.2656H35.3863L35.3921 68.248C35.5562 67.7559 36.0542 67.4746 36.8101 67.4746C37.7534 67.4746 38.2281 67.8965 38.2281 68.6758V69.25L36.4175 69.3613C34.9468 69.4492 34.1148 70.0996 34.1148 71.2246V71.2363C34.1148 72.3848 35.023 73.1113 36.2241 73.1113ZM35.1577 71.2129V71.2012C35.1577 70.5742 35.5796 70.2344 36.5406 70.1758L38.2281 70.0703V70.6445C38.2281 71.5469 37.4722 72.2266 36.4351 72.2266C35.7027 72.2266 35.1577 71.8516 35.1577 71.2129ZM40.9909 73H42.0104V69.0859C42.0104 68.1602 42.7018 67.5449 43.6745 67.5449C43.8971 67.5449 44.0905 67.5684 44.3014 67.6035V66.6133C44.2018 66.5957 43.985 66.5723 43.7916 66.5723C42.9362 66.5723 42.3444 66.959 42.1041 67.6211H42.0104V66.6836H40.9909V73ZM47.8435 73.1113C49.3318 73.1113 50.2341 72.2676 50.4509 71.4121L50.4627 71.3652H49.4431L49.4197 71.418C49.2498 71.7988 48.7224 72.2031 47.867 72.2031C46.742 72.2031 46.0212 71.4414 45.992 70.1348H50.5388V69.7363C50.5388 67.8496 49.4959 66.5723 47.7791 66.5723C46.0623 66.5723 44.949 67.9082 44.949 69.8594V69.8652C44.949 71.8457 46.0388 73.1113 47.8435 73.1113ZM47.7732 67.4805C48.7048 67.4805 49.3962 68.0723 49.5017 69.3203H46.0095C46.1209 68.1191 46.8357 67.4805 47.7732 67.4805Z" fill="#1D1D1F"/>
<defs>
<clipPath id="clip0_2_3333">
<rect width="45" height="54" fill="white" transform="translate(3.26562)"/>
</clipPath>
</defs>
</svg>
