<svg width="55" height="88" viewBox="0 0 55 88" fill="none" xmlns="http://www.w3.org/2000/svg">
<g clip-path="url(#clip0_2_3307)">
<path d="M22.7178 49H13.8599H13.532C13.0932 49.0109 12.6543 48.9818 12.2207 48.913C11.9949 48.8713 11.7761 48.7981 11.5707 48.6955C11.1868 48.5012 10.875 48.1894 10.6807 47.8055C10.5781 47.6001 10.5049 47.3813 10.4632 47.1555C10.4223 46.9349 10.3976 46.7116 10.3894 46.4874C10.377 46.2339 10.376 45.9596 10.3755 45.6984V11.2191C10.3755 10.9581 10.377 10.6837 10.3894 10.4291C10.3977 10.2057 10.4222 9.98306 10.4629 9.76314C10.5047 9.53715 10.578 9.31815 10.6807 9.11254C10.8749 8.72859 11.1867 8.41676 11.5707 8.22254C11.7763 8.11977 11.9953 8.04649 12.2213 8.00484C12.4939 7.95567 12.77 7.92891 13.047 7.92484C13.2789 7.91764 13.5704 7.91714 13.8348 7.91714H14.2418H15.2549C15.2943 7.91708 15.3334 7.92479 15.3699 7.93984C15.4063 7.95488 15.4394 7.97697 15.4674 8.00484C15.4953 8.0327 15.5174 8.06579 15.5325 8.10222C15.5476 8.13865 15.5554 8.17771 15.5554 8.21714V8.60714C15.5559 8.87264 15.6617 9.12709 15.8498 9.31453C16.0378 9.50197 16.2926 9.60704 16.5581 9.60664H21.8762V7.83534V7.43644C21.8762 7.26464 21.8826 7.17474 21.8862 7.00014H14.0418L13.8342 7.00004C13.5596 7.00004 13.2564 7.00074 13.0154 7.00824C12.6866 6.98706 12.3567 6.99221 12.0288 7.02364C11.7117 7.08311 11.4045 7.18679 11.1162 7.33164C10.544 7.6217 10.0791 8.0866 9.7891 8.65884C9.64427 8.94712 9.54056 9.25428 9.481 9.57134C9.43121 9.8388 9.40083 10.1095 9.3901 10.3813C9.377 10.6498 9.3755 10.9407 9.375 11.2173V11.5843V45.3331V45.7003C9.375 45.9767 9.377 46.2676 9.3901 46.5362C9.40083 46.8081 9.43121 47.0788 9.481 47.3462C9.54055 47.6633 9.64425 47.9705 9.7891 48.2588C10.0793 48.831 10.5441 49.2958 11.1162 49.586C11.4045 49.7308 11.7117 49.8345 12.0288 49.894C12.5241 49.976 13.0259 50.0115 13.5278 50C13.6377 50 13.7484 50 13.8599 50H23.6599C23.2868 49.7277 22.9674 49.3887 22.7177 49H22.7178ZM17.7537 7.41944C17.7538 7.38422 17.7678 7.35046 17.7927 7.32556C17.8176 7.30067 17.8514 7.28667 17.8866 7.28664H20.971C21.0062 7.28667 21.04 7.30066 21.065 7.32555C21.0899 7.35044 21.104 7.3842 21.1041 7.41944V7.44004C21.104 7.4753 21.09 7.50909 21.065 7.534C21.0401 7.55891 21.0063 7.57292 20.971 7.57294H17.8866C17.8514 7.57292 17.8176 7.55891 17.7927 7.53399C17.7677 7.50907 17.7537 7.47528 17.7537 7.44004V7.41944ZM16.2178 8.30004C16.2622 8.22652 16.3261 8.16673 16.4025 8.12731C16.4788 8.0879 16.5645 8.07039 16.6502 8.07674C16.7627 8.08611 16.8676 8.13741 16.944 8.22048C17.0205 8.30354 17.0629 8.41231 17.0629 8.52519C17.0629 8.63808 17.0205 8.74685 16.944 8.82991C16.8676 8.91298 16.7627 8.96428 16.6502 8.97364C16.5679 8.98156 16.4849 8.96663 16.4105 8.93049C16.3361 8.89436 16.2731 8.83841 16.2284 8.7688C16.1838 8.69919 16.1591 8.61861 16.1572 8.53592C16.1554 8.45322 16.1763 8.37161 16.2178 8.30004ZM45.3749 7.68804C45.3744 7.38624 45.3727 7.06874 45.3585 6.77574C45.3469 6.4791 45.3138 6.18369 45.2594 5.89184C45.1946 5.54633 45.0816 5.21163 44.9237 4.89754C44.6078 4.27392 44.1012 3.76733 43.4776 3.45144C43.1635 3.29359 42.8288 3.18059 42.4833 3.11574C41.9383 3.026 41.386 2.98743 40.8338 3.00054C40.6886 3.00054 40.5421 3.00054 40.3938 3.00054H28.4601H28.2335C27.9345 3.00054 27.6041 3.00144 27.3417 3.00954C26.9811 3.01598 26.6216 3.05166 26.2667 3.11624C25.9212 3.18105 25.5865 3.29405 25.2724 3.45194C24.6488 3.76783 24.1422 4.27442 23.8263 4.89804C23.6684 5.21213 23.5554 5.54683 23.4906 5.89234C23.4361 6.18417 23.403 6.47959 23.3915 6.77624C23.3854 6.90204 23.3869 7.03624 23.3844 7.16794C23.3815 7.34284 23.3754 7.51634 23.3751 7.68854V8.08574V44.9157C23.3751 45.0499 23.3751 45.1823 23.3751 45.3129C23.3756 45.6147 23.3773 45.9322 23.3915 46.2251C23.403 46.5219 23.4361 46.8173 23.4906 47.1092C23.5554 47.4547 23.6684 47.7894 23.8263 48.1034C23.9834 48.4132 24.1885 48.6961 24.434 48.9418C24.4616 48.9693 24.494 48.9908 24.5226 49.0173C24.7465 49.2289 24.999 49.4082 25.2726 49.5497C25.5867 49.7075 25.9214 49.8205 26.2669 49.8852C26.5856 49.9426 26.9081 49.9757 27.2318 49.9842C27.4588 49.9935 27.6869 49.9994 27.9164 50.0003C28.0235 50.0008 28.1314 50.0008 28.2403 50.0003H40.2903H40.5181C40.8169 50.0003 41.1465 49.9994 41.4087 49.9913C41.7693 49.985 42.1288 49.9493 42.4837 49.8846C42.8292 49.8198 43.1639 49.7069 43.478 49.5491C44.1015 49.233 44.6081 48.7264 44.9241 48.1028C45.082 47.7888 45.195 47.4541 45.2598 47.1086C45.3142 46.8167 45.3473 46.5213 45.3589 46.2245C45.3731 45.9316 45.3748 45.6145 45.3753 45.3123C45.3753 45.1815 45.3753 45.0491 45.3753 44.9151V8.08524C45.3749 7.95104 45.3749 7.81894 45.3749 7.68804ZM32.6461 3.59284C32.6461 3.55763 32.6601 3.52387 32.685 3.49897C32.7099 3.47407 32.7437 3.46007 32.7789 3.46004H35.8634C35.8986 3.4601 35.9324 3.4741 35.9572 3.499C35.9821 3.52389 35.9961 3.55764 35.9962 3.59284V3.61364C35.9962 3.64887 35.9822 3.68264 35.9573 3.70755C35.9324 3.73247 35.8986 3.74649 35.8634 3.74654H32.7789C32.7437 3.74652 32.7099 3.7325 32.685 3.70758C32.6601 3.68266 32.6461 3.64887 32.6461 3.61364V3.59284ZM31.16 4.43054C31.2013 4.36222 31.2594 4.30566 31.3289 4.26628C31.3983 4.22689 31.4767 4.20602 31.5565 4.20564L31.5926 4.20724C31.7051 4.21661 31.81 4.26791 31.8864 4.35097C31.9629 4.43404 32.0053 4.54281 32.0053 4.65569C32.0053 4.76858 31.9629 4.87735 31.8864 4.96041C31.81 5.04348 31.7051 5.09478 31.5926 5.10414L31.5569 5.10574C31.4773 5.10701 31.3988 5.08712 31.3294 5.04812C31.2599 5.00912 31.2021 4.95241 31.1618 4.88376C31.1214 4.81511 31.1 4.73698 31.0998 4.65736C31.0995 4.57774 31.1203 4.49947 31.1602 4.43054H31.16ZM44.3749 44.9148V45.3104C44.3749 45.5967 44.3717 45.8979 44.3583 46.1764C44.3491 46.4248 44.3219 46.6721 44.2768 46.9164C44.2297 47.1708 44.147 47.4173 44.0311 47.6486C43.8112 48.0836 43.458 48.4368 43.0231 48.6567C42.7919 48.7724 42.5455 48.855 42.2912 48.9018C41.9894 48.9564 41.6837 48.9861 41.3771 48.9905C41.1242 48.9983 40.8058 49.0005 40.5171 49.0005H28.2401L27.9198 49C27.6789 48.9991 27.4436 48.9933 27.214 48.9827C26.9606 48.9739 26.7081 48.9469 26.4586 48.9017C26.2043 48.8548 25.958 48.7724 25.7267 48.6567C25.2917 48.4365 24.9385 48.0832 24.7184 47.6481C24.6026 47.4168 24.52 47.1703 24.473 46.9158C24.4277 46.6715 24.4005 46.4242 24.3915 46.1758C24.3781 45.8979 24.3749 45.5967 24.3749 45.31V44.8714V8.08524V7.69004C24.3749 7.51744 24.3822 7.34304 24.3854 7.16784C24.3878 7.05244 24.3861 6.93454 24.3915 6.82394C24.4005 6.5756 24.4278 6.32825 24.4733 6.08394C24.5201 5.82949 24.6028 5.58294 24.7187 5.35164C24.9385 4.91666 25.2917 4.56343 25.7267 4.34364C25.958 4.22798 26.2043 4.14544 26.4586 4.09844C26.7604 4.04404 27.0661 4.01441 27.3727 4.00984C27.6261 4.00204 27.9447 4.00134 28.2335 4.00134H28.351H29.2018V4.00194H30.1461C30.1856 4.00184 30.2247 4.00952 30.2612 4.02455C30.2976 4.03958 30.3308 4.06166 30.3587 4.08953C30.3867 4.1174 30.4089 4.1505 30.424 4.18695C30.4391 4.2234 30.4469 4.26248 30.4469 4.30194V4.69194C30.447 4.82343 30.473 4.95361 30.5235 5.07504C30.5739 5.19647 30.6478 5.30677 30.7409 5.39964C30.834 5.4925 30.9445 5.56612 31.066 5.61627C31.1876 5.66643 31.3178 5.69214 31.4493 5.69194H37.2493C37.5127 5.69231 37.7655 5.5889 37.9532 5.40412C38.1408 5.21934 38.2481 4.96807 38.2518 4.70474L38.2567 4.29894C38.2579 4.21997 38.2901 4.14462 38.3463 4.08919C38.4026 4.03376 38.4784 4.00271 38.5574 4.00274H39.5741V4.00124H40.3932H40.8297C41.3188 3.98908 41.808 4.02141 42.2912 4.09784C42.5455 4.14478 42.7919 4.22733 43.0231 4.34304C43.4581 4.56309 43.8114 4.91646 44.0314 5.35154C44.1472 5.58265 44.2297 5.82895 44.2765 6.08314C44.3218 6.32748 44.3492 6.57481 44.3583 6.82314C44.3717 7.10114 44.3747 7.40244 44.3749 7.68904V8.12764V44.9148Z" fill="#1D1D1F"/>
</g>
<path d="M1.80461 65.4648C2.19133 65.4648 2.50773 65.1484 2.50773 64.7617C2.50773 64.375 2.19133 64.0586 1.80461 64.0586C1.41789 64.0586 1.10148 64.375 1.10148 64.7617C1.10148 65.1484 1.41789 65.4648 1.80461 65.4648ZM1.28898 73H2.30852V66.6836H1.28898V73ZM4.2393 73H5.29398V69.9824H7.4268C9.01469 69.9824 10.1397 68.8633 10.1397 67.2578V67.2461C10.1397 65.6406 9.01469 64.5449 7.4268 64.5449H4.2393V73ZM7.15727 65.4824C8.3643 65.4824 9.06156 66.1445 9.06156 67.2578V67.2695C9.06156 68.3828 8.3643 69.0449 7.15727 69.0449H5.29398V65.4824H7.15727ZM11.6779 73H12.6974V69.2617C12.6974 68.1543 13.3361 67.4746 14.3439 67.4746C15.3517 67.4746 15.8205 68.0195 15.8205 69.1562V73H16.84V68.9102C16.84 67.4102 16.049 66.5723 14.631 66.5723C13.6994 66.5723 13.1076 66.9648 12.7912 67.6328H12.6974V64.1758H11.6779V73ZM21.1614 73.1113C22.9602 73.1113 24.0735 71.8691 24.0735 69.8477V69.8359C24.0735 67.8086 22.9602 66.5723 21.1614 66.5723C19.3626 66.5723 18.2493 67.8086 18.2493 69.8359V69.8477C18.2493 71.8691 19.3626 73.1113 21.1614 73.1113ZM21.1614 72.209C19.9661 72.209 19.2923 71.3359 19.2923 69.8477V69.8359C19.2923 68.3418 19.9661 67.4746 21.1614 67.4746C22.3567 67.4746 23.0305 68.3418 23.0305 69.8359V69.8477C23.0305 71.3359 22.3567 72.209 21.1614 72.209ZM25.5355 73H26.5551V69.2617C26.5551 68.1543 27.1938 67.4746 28.2016 67.4746C29.2094 67.4746 29.6781 68.0195 29.6781 69.1562V73H30.6977V68.9102C30.6977 67.4102 29.9066 66.5723 28.4887 66.5723C27.557 66.5723 26.9652 66.9648 26.6488 67.6328H26.5551V66.6836H25.5355V73ZM35.0015 73.1113C36.4898 73.1113 37.3921 72.2676 37.6089 71.4121L37.6206 71.3652H36.6011L36.5777 71.418C36.4077 71.7988 35.8804 72.2031 35.0249 72.2031C33.8999 72.2031 33.1792 71.4414 33.1499 70.1348H37.6968V69.7363C37.6968 67.8496 36.6538 66.5723 34.937 66.5723C33.2202 66.5723 32.107 67.9082 32.107 69.8594V69.8652C32.107 71.8457 33.1968 73.1113 35.0015 73.1113ZM34.9312 67.4805C35.8628 67.4805 36.5542 68.0723 36.6597 69.3203H33.1675C33.2788 68.1191 33.9937 67.4805 34.9312 67.4805ZM44.4763 73H45.531V64.5449H44.4822L42.2322 66.1621V67.2754L44.3826 65.7168H44.4763V73ZM51.7157 73H52.747V71.248H53.9481V70.3047H52.747V64.5449H51.2177C50.0341 66.3086 48.7391 68.3711 47.5966 70.2871V71.248H51.7157V73ZM48.6747 70.3105V70.2402C49.5946 68.6875 50.702 66.9414 51.6513 65.5234H51.7216V70.3105H48.6747Z" fill="#1D1D1F"/>
<path d="M18.0062 87H18.8753V81.5361H18.9534L22.7767 87H23.6312V79.9541H22.762V85.4375H22.6839L18.8607 79.9541H18.0062V87ZM27.3891 87.0928C28.6293 87.0928 29.3813 86.3896 29.5619 85.6768L29.5717 85.6377H28.7221L28.7025 85.6816C28.5609 85.999 28.1215 86.3359 27.4086 86.3359C26.4711 86.3359 25.8705 85.7012 25.8461 84.6123H29.6352V84.2803C29.6352 82.708 28.766 81.6436 27.3354 81.6436C25.9047 81.6436 24.977 82.7568 24.977 84.3828V84.3877C24.977 86.0381 25.8852 87.0928 27.3891 87.0928ZM27.3305 82.4004C28.1068 82.4004 28.683 82.8936 28.7709 83.9336H25.8607C25.9535 82.9326 26.5492 82.4004 27.3305 82.4004ZM31.8891 87H32.7388L33.9106 82.9277H33.9888L35.1655 87H36.02L37.4946 81.7363H36.6499L35.6147 85.9453H35.5366L34.3598 81.7363H33.5542L32.3774 85.9453H32.2993L31.2641 81.7363H30.4145L31.8891 87Z" fill="#BF4800"/>
<defs>
<clipPath id="clip0_2_3307">
<rect width="38" height="54" fill="white" transform="translate(8.375)"/>
</clipPath>
</defs>
</svg>
