<svg width="37" height="77" viewBox="0 0 37 77" fill="none" xmlns="http://www.w3.org/2000/svg">
<g clip-path="url(#clip0_2_3366)">
<path d="M19.11 34.46C19.11 37.32 17.62 39.13 15.24 39.13C12.86 39.13 11.37 37.32 11.37 34.46C11.37 31.59 12.86 29.79 15.24 29.79C17.62 29.79 19.11 31.59 19.11 34.46ZM34.25 26.8V41.2C34.25 42.34 34.24 44.14 33.62 45.74C33.31 46.53 32.59 47.64 31.57 48.43C30.98 48.88 30.28 49.32 29.32 49.6C28.29 49.9 27.02 50 25.45 50H11.05C9.48 50 8.21 49.9 7.18 49.59C6.22 49.3 5.52 48.87 4.93 48.42C3.91 47.64 3.19 46.52 2.88 45.73C2.26 44.14 2.25 42.34 2.25 41.2V26.8C2.25 25.66 2.26 23.86 2.88 22.26C3.19 21.47 3.91 20.36 4.93 19.57C5.52 19.12 6.22 18.68 7.18 18.4C8.21 18.1 9.48 18 11.05 18H25.45C27.03 18 28.29 18.1 29.32 18.41C30.28 18.7 30.99 19.13 31.57 19.58C32.59 20.36 33.31 21.48 33.62 22.27C34.24 23.86 34.25 25.66 34.25 26.8ZM8.56 40.27V33.33H7.13V40.27H8.56ZM8.66 31.4C8.66 30.95 8.3 30.58 7.84 30.58C7.39 30.58 7.02 30.94 7.02 31.4C7.02 31.85 7.39 32.22 7.84 32.22C8.3 32.21 8.66 31.85 8.66 31.4ZM20.6 34.46C20.6 30.77 18.54 28.45 15.24 28.45C11.94 28.45 9.88 30.77 9.88 34.46C9.88 38.15 11.94 40.46 15.24 40.46C18.54 40.46 20.6 38.15 20.6 34.46ZM29.88 36.97C29.88 35.33 28.92 34.36 26.5 33.83L25.21 33.55C23.62 33.2 23 32.57 23 31.66C23 30.47 24.12 29.77 25.57 29.77C27.09 29.77 28.09 30.55 28.22 31.82H29.67C29.6 29.85 27.93 28.46 25.61 28.46C23.2 28.46 21.51 29.81 21.51 31.72C21.51 33.37 22.52 34.43 24.85 34.93L26.14 35.21C27.75 35.56 28.4 36.21 28.4 37.18C28.4 38.33 27.25 39.15 25.68 39.15C24.01 39.15 22.85 38.39 22.68 37.14H21.23C21.37 39.15 23.06 40.45 25.6 40.45C28.19 40.46 29.88 39.12 29.88 36.97Z" fill="#1D1D1F"/>
</g>
<path d="M1.91758 65.4648C2.3043 65.4648 2.6207 65.1484 2.6207 64.7617C2.6207 64.375 2.3043 64.0586 1.91758 64.0586C1.53086 64.0586 1.21445 64.375 1.21445 64.7617C1.21445 65.1484 1.53086 65.4648 1.91758 65.4648ZM1.40195 73H2.42148V66.6836H1.40195V73ZM7.90305 73.1992C10.3171 73.1992 11.782 71.4707 11.782 68.7754V68.7637C11.782 66.0566 10.3054 64.3457 7.90305 64.3457C5.51242 64.3457 4.02414 66.0508 4.02414 68.7637V68.7754C4.02414 71.4766 5.47727 73.1992 7.90305 73.1992ZM7.90305 72.2266C6.14523 72.2266 5.10227 70.8672 5.10227 68.7754V68.7637C5.10227 66.6543 6.18039 65.3184 7.90305 65.3184C9.63156 65.3184 10.7038 66.6543 10.7038 68.7637V68.7754C10.7038 70.8672 9.63742 72.2266 7.90305 72.2266ZM16.2616 73.1992C18.1483 73.1992 19.3846 72.2148 19.3846 70.6328V70.627C19.3846 69.4082 18.6873 68.6992 16.9237 68.3066L15.9862 68.0957C14.8377 67.8438 14.3748 67.3867 14.3748 66.7129V66.707C14.3748 65.8223 15.1893 65.3242 16.244 65.3184C17.3455 65.3125 18.0487 65.8633 18.1659 66.6074L18.1776 66.6836H19.2323L19.2264 66.6016C19.1385 65.3418 17.9608 64.3457 16.2733 64.3457C14.5272 64.3457 13.3026 65.3359 13.2967 66.7363V66.7422C13.2967 67.9668 14.0291 68.7461 15.7225 69.1211L16.66 69.3262C17.8202 69.584 18.3065 70.0645 18.3065 70.7676V70.7734C18.3065 71.6348 17.4686 72.2266 16.3202 72.2266C15.1014 72.2266 14.2225 71.6934 14.1463 70.8496L14.1405 70.7852H13.0858L13.0916 70.8496C13.2147 72.2266 14.41 73.1992 16.2616 73.1992ZM26.211 73H27.2657V64.5449H26.2169L23.9669 66.1621V67.2754L26.1173 65.7168H26.211V73ZM32.5773 73.1992C34.2824 73.1992 35.5363 71.9746 35.5363 70.2871V70.2754C35.5363 68.6523 34.3527 67.4453 32.7648 67.4453C31.6223 67.4453 30.8254 68.0605 30.5148 68.752H30.4035C30.4035 68.6875 30.4035 68.6172 30.4094 68.5527C30.4738 66.7891 31.1008 65.2891 32.6359 65.2891C33.4914 65.2891 34.0832 65.7285 34.341 66.4375L34.3645 66.502H35.425L35.4074 66.4258C35.1203 65.1777 34.0656 64.3457 32.6477 64.3457C30.5969 64.3457 29.3957 66.0332 29.3957 68.916V68.9277C29.3957 72.1094 31.0305 73.1992 32.5773 73.1992ZM30.6555 70.2754V70.2695C30.6555 69.168 31.4875 68.3652 32.5832 68.3652C33.6789 68.3652 34.4758 69.1738 34.4758 70.2988V70.3105C34.4758 71.4062 33.6262 72.2676 32.5656 72.2676C31.4934 72.2676 30.6555 71.3887 30.6555 70.2754Z" fill="#1D1D1F"/>
<defs>
<clipPath id="clip0_2_3366">
<rect width="32" height="54" fill="white" transform="translate(2.25)"/>
</clipPath>
</defs>
</svg>
