<svg width="71" height="77" viewBox="0 0 71 77" fill="none" xmlns="http://www.w3.org/2000/svg">
<g clip-path="url(#clip0_2_3374)">
<path d="M56.0674 47.5001C56.0674 47.7236 56.0011 47.9421 55.877 48.1279C55.7528 48.3137 55.5763 48.4586 55.3698 48.5441C55.1634 48.6296 54.9362 48.652 54.717 48.6084C54.4978 48.5648 54.2964 48.4572 54.1384 48.2991C53.9803 48.1411 53.8727 47.9397 53.8291 47.7205C53.7855 47.5013 53.8079 47.2741 53.8934 47.0677C53.979 46.8612 54.1238 46.6847 54.3096 46.5605C54.4954 46.4364 54.7139 46.3701 54.9374 46.3701C55.237 46.3704 55.5242 46.4896 55.7361 46.7014C55.9479 46.9133 56.0671 47.2005 56.0674 47.5001ZM64.4374 13.0001V47.0001C64.4374 47.7957 64.1213 48.5588 63.5587 49.1214C62.9961 49.684 62.2331 50.0001 61.4374 50.0001H48.4374C47.6915 49.9983 46.9734 49.7168 46.4249 49.2113C46.5834 49.0067 46.723 48.7882 46.8422 48.5585C47.0422 48.1624 47.1854 47.74 47.2675 47.3039C47.3712 46.689 47.416 46.0655 47.4013 45.4421V45.0001H63.4374V15.0001H47.4015V11.6049V11.3091C47.4002 10.9374 47.3871 10.5717 47.3592 10.2082C47.7026 10.0726 48.0682 10.002 48.4374 10.0001H61.4374C62.2331 10.0001 62.9961 10.3162 63.5587 10.8788C64.1213 11.4414 64.4374 12.2044 64.4374 13.0001ZM51.3124 12.5001C51.3124 12.4259 51.2904 12.3534 51.2492 12.2918C51.208 12.2301 51.1494 12.182 51.0809 12.1536C51.0124 12.1253 50.937 12.1178 50.8643 12.1323C50.7915 12.1468 50.7247 12.1825 50.6722 12.2349C50.6198 12.2874 50.5841 12.3542 50.5696 12.4269C50.5551 12.4997 50.5626 12.5751 50.591 12.6436C50.6193 12.7121 50.6674 12.7707 50.7291 12.8119C50.7907 12.8531 50.8632 12.8751 50.9374 12.8751C51.0369 12.8751 51.1322 12.8356 51.2025 12.7652C51.2729 12.6949 51.3124 12.5995 51.3124 12.5001ZM57.4374 12.5001C57.4372 12.4338 57.4108 12.3704 57.364 12.3235C57.3171 12.2767 57.2537 12.2503 57.1874 12.2501H52.6874C52.6211 12.2501 52.5575 12.2764 52.5106 12.3233C52.4637 12.3702 52.4374 12.4338 52.4374 12.5001C52.4374 12.5664 52.4637 12.63 52.5106 12.6769C52.5575 12.7238 52.6211 12.7501 52.6874 12.7501H57.1874C57.2537 12.7499 57.3171 12.7235 57.364 12.6767C57.4108 12.6298 57.4372 12.5663 57.4374 12.5001ZM56.6874 47.5001C56.6874 47.154 56.5848 46.8156 56.3925 46.5278C56.2002 46.2401 55.9269 46.0158 55.6071 45.8833C55.2873 45.7509 54.9355 45.7162 54.596 45.7837C54.2565 45.8512 53.9447 46.0179 53.7 46.2627C53.4552 46.5074 53.2886 46.8192 53.221 47.1587C53.1535 47.4982 53.1882 47.85 53.3206 48.1698C53.4531 48.4896 53.6774 48.7629 53.9652 48.9552C54.2529 49.1475 54.5913 49.2501 54.9374 49.2501C55.4015 49.2501 55.8467 49.0657 56.1748 48.7375C56.503 48.4093 56.6874 47.9642 56.6874 47.5001ZM12.3688 13.2549C12.1027 13.4238 11.803 13.5327 11.4905 13.574C11.178 13.6153 10.8603 13.5881 10.5594 13.4941C10.2585 13.4002 9.98169 13.2419 9.74821 13.0301C9.51473 12.8184 9.33019 12.5583 9.20741 12.268C9.09136 11.9609 9.04991 11.6307 9.08648 11.3045C9.12304 10.9782 9.23658 10.6654 9.41774 10.3916C9.59889 10.1178 9.84249 9.89103 10.1285 9.72985C10.4144 9.56866 10.7346 9.47772 11.0626 9.4645C11.5225 9.42247 11.9832 9.53589 12.3711 9.78663C12.7589 10.0374 13.0514 10.4109 13.2019 10.8475C13.3524 11.2842 13.3521 11.7586 13.201 12.1951C13.05 12.6315 12.757 13.0047 12.3688 13.2549ZM16.0463 12.0401C15.7004 12.0524 15.3631 12.1511 15.0652 12.3272C14.7672 12.5033 14.5181 12.7512 14.3405 13.0483C14.1629 13.3453 14.0625 13.6821 14.0484 14.0279C14.0343 14.3737 14.107 14.7176 14.2599 15.0281C14.4034 15.2926 14.6001 15.5246 14.8375 15.7095C15.0749 15.8944 15.348 16.0283 15.6396 16.1027C15.9312 16.1771 16.235 16.1904 16.532 16.1418C16.829 16.0932 17.1127 15.9837 17.3654 15.8203C17.7493 15.5673 18.0377 15.1935 18.185 14.758C18.3323 14.3225 18.3301 13.8503 18.1786 13.4163C18.0272 12.9822 17.7351 12.6111 17.3489 12.3619C16.9626 12.1126 16.5042 11.9993 16.0463 12.0401ZM11.1496 14.6201C10.8129 14.6193 10.4811 14.7006 10.1829 14.8569C9.88473 15.0133 9.62915 15.24 9.43833 15.5174C9.24751 15.7948 9.1272 16.1145 9.08781 16.4489C9.04843 16.7833 9.09116 17.1223 9.21231 17.4364C9.36827 17.7969 9.61958 18.1081 9.9392 18.3364C10.2588 18.5647 10.6347 18.7016 11.0263 18.7322C11.4179 18.7629 11.8104 18.6861 12.1617 18.5103C12.5129 18.3345 12.8096 18.0662 13.0197 17.7343C13.2089 17.4139 13.3081 17.0483 13.3068 16.6762C13.3054 16.3041 13.2036 15.9393 13.012 15.6203C12.8204 15.3013 12.5463 15.04 12.2185 14.8639C11.8906 14.6879 11.5213 14.6036 11.1496 14.6201ZM25.0043 48.5589C25.1848 48.9068 25.4122 49.2283 25.6801 49.5143C25.3581 49.6658 25.0185 49.7767 24.6691 49.8443C24.2711 49.9162 23.8679 49.9559 23.4635 49.9631C23.0922 49.9746 22.5998 49.9731 22.2091 49.9731H12.1491H11.7331C11.6225 49.9731 11.5125 49.9727 11.4031 49.9719C10.8289 49.982 10.2549 49.9394 9.68851 49.8445C9.30119 49.7724 8.92581 49.6466 8.57321 49.4708C7.87519 49.1202 7.30709 48.5562 6.95141 47.8608C6.77433 47.5114 6.64757 47.1387 6.57491 46.7538C6.47316 46.1375 6.42983 45.5129 6.44551 44.8884C6.44551 44.7802 6.44551 44.6712 6.44551 44.5615V12.1885C6.44551 12.0786 6.44551 11.9696 6.44551 11.8615C6.42997 11.237 6.47343 10.6124 6.57531 9.996C6.648 9.61113 6.77476 9.23847 6.95181 8.88909C7.30744 8.19362 7.87555 7.62964 8.57361 7.27909C8.9262 7.10328 9.30158 6.97747 9.68891 6.90529C10.087 6.83335 10.4902 6.79366 10.8947 6.78659C11.266 6.77509 11.7584 6.7766 12.1491 6.7766H22.2091H22.6251C22.7351 6.7766 22.8451 6.77659 22.9545 6.77779C23.5287 6.76766 24.1027 6.8103 24.6691 6.90519C25.0185 6.97279 25.3581 7.08364 25.6801 7.23519C25.4122 7.52134 25.1848 7.84291 25.0043 8.19089C24.8042 8.58702 24.661 9.00937 24.5788 9.4455C24.4752 10.0605 24.4305 10.684 24.4452 11.3075V11.6042V45.1442V45.4392C24.4304 46.0632 24.4751 46.6872 24.5788 47.3027C24.6608 47.7394 24.804 48.1623 25.0043 48.5589ZM18.8243 12.5282C18.8243 12.2489 18.8243 12.0547 18.8238 11.8921C18.8238 11.7321 18.8218 11.5999 18.8177 11.4785C18.8122 11.2402 18.7854 11.0028 18.7377 10.7692C18.6864 10.5254 18.6018 10.2899 18.4863 10.0692C18.2457 9.61315 17.8728 9.24049 17.4166 9.00009C17.1959 8.88457 16.9604 8.79998 16.7166 8.74869C16.4831 8.70084 16.2457 8.67406 16.0074 8.66869C15.8861 8.66449 15.7535 8.66299 15.5936 8.6624C15.4312 8.6618 15.2369 8.6624 14.9576 8.6624H12.2184C11.9391 8.6624 11.7448 8.6624 11.5822 8.6624C11.4222 8.66299 11.2899 8.66449 11.1686 8.66869C10.93 8.67404 10.6924 8.70081 10.4586 8.74869C10.2152 8.80002 9.98003 8.88462 9.75971 9.00009C9.30351 9.24077 8.93073 9.61376 8.69031 10.0701C8.57482 10.2908 8.49023 10.5263 8.43891 10.7701C8.39105 11.0037 8.36427 11.241 8.35891 11.4794C8.35451 11.6008 8.35331 11.7332 8.35261 11.893V12.5291V15.6751V16.3111C8.35331 16.4711 8.35451 16.6033 8.35891 16.7248C8.36428 16.9631 8.39105 17.2005 8.43891 17.434C8.49021 17.6778 8.5748 17.9133 8.69031 18.134C8.93079 18.5901 9.30357 18.9629 9.75971 19.2033C9.98017 19.3189 10.2155 19.4035 10.4591 19.4547C10.6929 19.5026 10.9305 19.5293 11.1691 19.5347C11.2904 19.5389 11.4228 19.5403 11.5827 19.541C11.7453 19.5416 11.9396 19.541 12.2189 19.541H14.9589H15.5949C15.7549 19.5403 15.8874 19.5389 16.0087 19.5347C16.247 19.5293 16.4844 19.5025 16.7179 19.4547C16.9617 19.4035 17.1972 19.3189 17.4179 19.2033C17.874 18.9629 18.2468 18.5901 18.4873 18.134C18.6028 17.9133 18.6874 17.6778 18.7387 17.434C18.7864 17.2004 18.8132 16.9631 18.8187 16.7248C18.8228 16.6033 18.8243 16.471 18.8248 16.3111C18.8253 16.1486 18.8253 15.9543 18.8253 15.6751L18.8243 12.5282ZM26.1666 48.5482C26.0648 48.4078 25.9743 48.2597 25.8958 48.1051C25.8168 47.9496 25.7495 47.7885 25.6944 47.6231C25.7495 47.7886 25.8168 47.9497 25.8958 48.1052C25.9742 48.2597 26.0646 48.4078 26.1662 48.5481L26.1666 48.5482ZM30.3019 7.75009H30.4193H30.5285H41.328H41.6967L41.9848 7.75109C42.434 7.7425 42.8831 7.77453 43.3266 7.8468C43.5807 7.89376 43.8269 7.97623 44.058 8.09179C44.4924 8.31156 44.8451 8.66439 45.0648 9.09879C45.1804 9.32974 45.2628 9.57583 45.3097 9.8298C45.3874 10.3213 45.4197 10.819 45.4062 11.3165V11.6047V44.9201V45.4348C45.4197 45.9317 45.3874 46.4287 45.3097 46.9197C45.2628 47.1738 45.1803 47.4201 45.0646 47.6512C44.8448 48.0857 44.4919 48.4386 44.0574 48.6583C43.8265 48.7738 43.5805 48.8562 43.3266 48.9031C43.0252 48.9575 42.7198 48.9871 42.4136 48.9916C42.1606 48.9995 41.8425 49.0001 41.5536 49.0001H41.4374H41.3282H30.5285H30.1585L29.8714 48.9991C29.422 49.0077 28.9727 48.9757 28.5291 48.9033C28.2753 48.8564 28.0293 48.774 27.7984 48.6585C27.3639 48.4388 27.011 48.0859 26.7913 47.6514C26.6758 47.4204 26.5934 47.1744 26.5465 46.9204C26.4686 46.43 26.4363 45.9335 26.45 45.4372V45.1455V11.6055V11.3155C26.4363 10.8184 26.4687 10.3212 26.5468 9.83009C26.5937 9.57598 26.6761 9.32973 26.7916 9.0986C27.0115 8.66452 27.3641 8.31192 27.7982 8.09209C28.0293 7.97657 28.2754 7.8941 28.5294 7.8471C28.8308 7.79271 29.1362 7.76311 29.4425 7.75859C29.6955 7.75069 30.0136 7.75009 30.3019 7.75009ZM30.3019 6.75009C30.0031 6.75009 29.6735 6.75089 29.4119 6.75909C29.0514 6.76541 28.6921 6.80103 28.3374 6.86559C27.9923 6.93044 27.658 7.0433 27.3442 7.20089C26.7218 7.51671 26.2161 8.02256 25.9005 8.6451C25.743 8.95886 25.6301 9.29313 25.5653 9.63819C25.4747 10.1912 25.4362 10.7515 25.4503 11.3117C25.4499 11.4087 25.4499 11.5064 25.4503 11.6049V45.1449V45.4382C25.4362 45.9984 25.4747 46.5586 25.5653 47.1116C25.6301 47.4567 25.7429 47.7909 25.9005 48.1047C26.2162 48.7273 26.722 49.2332 27.3446 49.5489C27.6584 49.7065 27.9927 49.8194 28.3378 49.8842C28.8421 49.9693 29.3532 50.0076 29.8646 49.9985C29.9618 49.9991 30.0596 49.9994 30.1579 49.9995H30.5285H41.328H41.5543C41.8532 49.9995 42.183 49.9987 42.445 49.9905C42.8052 49.9841 43.1643 49.9485 43.5187 49.884C43.8637 49.8193 44.198 49.7064 44.5116 49.5487C45.1344 49.2331 45.6403 48.7272 45.956 48.1045C46.1136 47.7907 46.2264 47.4565 46.2912 47.1114C46.3817 46.5584 46.4202 45.9982 46.4062 45.438V44.9208V11.6049C46.4062 11.5064 46.4062 11.4086 46.4062 11.3117C46.4202 10.7515 46.3817 10.1912 46.2912 9.63819C46.2264 9.29313 46.1136 8.95886 45.956 8.6451C45.6403 8.02239 45.1344 7.51651 44.5116 7.20089C44.1979 7.04325 43.8637 6.93039 43.5187 6.86559C43.0144 6.78052 42.5032 6.74226 41.9918 6.7513C41.8947 6.7507 41.7969 6.75036 41.6986 6.75029H41.328H30.5285H30.3019V6.75009ZM38.0312 8.2601H33.8585C33.6178 8.26261 33.3878 8.35999 33.2185 8.53108C33.0492 8.70217 32.9543 8.93315 32.9543 9.17384C32.9543 9.41454 33.0492 9.64552 33.2185 9.81661C33.3878 9.9877 33.6178 10.0851 33.8585 10.0876H38.0312C38.152 10.0889 38.2719 10.0662 38.3838 10.0208C38.4958 9.97545 38.5977 9.90834 38.6835 9.82337C38.7694 9.73839 38.8376 9.63724 38.8841 9.52575C38.9306 9.41426 38.9546 9.29465 38.9546 9.17384C38.9546 9.05304 38.9306 8.93343 38.8841 8.82194C38.8376 8.71045 38.7694 8.6093 38.6835 8.52432C38.5977 8.43935 38.4958 8.37224 38.3838 8.32689C38.2719 8.28153 38.152 8.25883 38.0312 8.2601ZM38.0834 9.6238C37.9944 9.6238 37.9074 9.5974 37.8334 9.54796C37.7594 9.49851 37.7017 9.42823 37.6677 9.346C37.6336 9.26378 37.6247 9.1733 37.6421 9.086C37.6594 8.99871 37.7023 8.91853 37.7652 8.8556C37.8281 8.79266 37.9083 8.7498 37.9956 8.73244C38.0829 8.71508 38.1734 8.72399 38.2556 8.75805C38.3378 8.79211 38.4081 8.84979 38.4576 8.92379C38.507 8.99779 38.5334 9.08479 38.5334 9.1738C38.5334 9.2329 38.5218 9.29143 38.4992 9.34603C38.4766 9.40064 38.4434 9.45026 38.4016 9.49206C38.3599 9.53385 38.3102 9.56701 38.2556 9.58963C38.201 9.61225 38.1425 9.6239 38.0834 9.6239V9.6238Z" fill="#1D1D1F"/>
</g>
<path d="M4.42656 73.1992C6.31328 73.1992 7.54961 72.2148 7.54961 70.6328V70.627C7.54961 69.4082 6.85234 68.6992 5.08867 68.3066L4.15117 68.0957C3.00273 67.8438 2.53984 67.3867 2.53984 66.7129V66.707C2.53984 65.8223 3.35429 65.3242 4.40898 65.3184C5.51054 65.3125 6.21367 65.8633 6.33086 66.6074L6.34258 66.6836H7.39726L7.3914 66.6016C7.30351 65.3418 6.12578 64.3457 4.43828 64.3457C2.69218 64.3457 1.46758 65.3359 1.46172 66.7363V66.7422C1.46172 67.9668 2.19414 68.7461 3.8875 69.1211L4.825 69.3262C5.98515 69.584 6.47148 70.0645 6.47148 70.7676V70.7734C6.47148 71.6348 5.63359 72.2266 4.48515 72.2266C3.2664 72.2266 2.3875 71.6934 2.31133 70.8496L2.30547 70.7852H1.25078L1.25664 70.8496C1.37968 72.2266 2.575 73.1992 4.42656 73.1992ZM9.11711 73H10.1366V69.2617C10.1366 68.1543 10.7753 67.4746 11.7831 67.4746C12.7909 67.4746 13.2597 68.0195 13.2597 69.1562V73H14.2792V68.9102C14.2792 67.4102 13.4882 66.5723 12.0702 66.5723C11.1386 66.5723 10.5468 66.9648 10.2304 67.6328H10.1366V64.1758H9.11711V73ZM18.6006 73.1113C20.3995 73.1113 21.5127 71.8691 21.5127 69.8477V69.8359C21.5127 67.8086 20.3995 66.5723 18.6006 66.5723C16.8018 66.5723 15.6885 67.8086 15.6885 69.8359V69.8477C15.6885 71.8691 16.8018 73.1113 18.6006 73.1113ZM18.6006 72.209C17.4053 72.209 16.7315 71.3359 16.7315 69.8477V69.8359C16.7315 68.3418 17.4053 67.4746 18.6006 67.4746C19.7959 67.4746 20.4698 68.3418 20.4698 69.8359V69.8477C20.4698 71.3359 19.7959 72.209 18.6006 72.209ZM22.9748 75.1094H23.9943V72.0039H24.088C24.4337 72.6777 25.1896 73.1113 26.0568 73.1113C27.6623 73.1113 28.7052 71.8281 28.7052 69.8477V69.8359C28.7052 67.8672 27.6564 66.5723 26.0568 66.5723C25.1779 66.5723 24.4748 66.9883 24.088 67.6914H23.9943V66.6836H22.9748V75.1094ZM25.8224 72.209C24.674 72.209 23.9709 71.3066 23.9709 69.8477V69.8359C23.9709 68.377 24.674 67.4746 25.8224 67.4746C26.9767 67.4746 27.6623 68.3652 27.6623 69.8359V69.8477C27.6623 71.3184 26.9767 72.209 25.8224 72.209ZM33.973 65.4648C34.3598 65.4648 34.6762 65.1484 34.6762 64.7617C34.6762 64.375 34.3598 64.0586 33.973 64.0586C33.5863 64.0586 33.2699 64.375 33.2699 64.7617C33.2699 65.1484 33.5863 65.4648 33.973 65.4648ZM33.4574 73H34.4769V66.6836H33.4574V73ZM36.4077 73H37.4624V69.9824H39.5952C41.1831 69.9824 42.3081 68.8633 42.3081 67.2578V67.2461C42.3081 65.6406 41.1831 64.5449 39.5952 64.5449H36.4077V73ZM39.3257 65.4824C40.5327 65.4824 41.23 66.1445 41.23 67.2578V67.2695C41.23 68.3828 40.5327 69.0449 39.3257 69.0449H37.4624V65.4824H39.3257ZM43.8463 73H44.8659V69.2617C44.8659 68.1543 45.5045 67.4746 46.5123 67.4746C47.5202 67.4746 47.9889 68.0195 47.9889 69.1562V73H49.0084V68.9102C49.0084 67.4102 48.2174 66.5723 46.7994 66.5723C45.8678 66.5723 45.276 66.9648 44.9596 67.6328H44.8659V64.1758H43.8463V73ZM53.3298 73.1113C55.1287 73.1113 56.242 71.8691 56.242 69.8477V69.8359C56.242 67.8086 55.1287 66.5723 53.3298 66.5723C51.531 66.5723 50.4177 67.8086 50.4177 69.8359V69.8477C50.4177 71.8691 51.531 73.1113 53.3298 73.1113ZM53.3298 72.209C52.1345 72.209 51.4607 71.3359 51.4607 69.8477V69.8359C51.4607 68.3418 52.1345 67.4746 53.3298 67.4746C54.5252 67.4746 55.199 68.3418 55.199 69.8359V69.8477C55.199 71.3359 54.5252 72.209 53.3298 72.209ZM57.704 73H58.7235V69.2617C58.7235 68.1543 59.3622 67.4746 60.37 67.4746C61.3778 67.4746 61.8466 68.0195 61.8466 69.1562V73H62.8661V68.9102C62.8661 67.4102 62.0751 66.5723 60.6571 66.5723C59.7255 66.5723 59.1337 66.9648 58.8173 67.6328H58.7235V66.6836H57.704V73ZM67.1699 73.1113C68.6582 73.1113 69.5605 72.2676 69.7773 71.4121L69.7891 71.3652H68.7695L68.7461 71.418C68.5762 71.7988 68.0488 72.2031 67.1934 72.2031C66.0684 72.2031 65.3477 71.4414 65.3184 70.1348H69.8652V69.7363C69.8652 67.8496 68.8223 66.5723 67.1055 66.5723C65.3887 66.5723 64.2754 67.9082 64.2754 69.8594V69.8652C64.2754 71.8457 65.3652 73.1113 67.1699 73.1113ZM67.0996 67.4805C68.0312 67.4805 68.7227 68.0723 68.8281 69.3203H65.3359C65.4473 68.1191 66.1621 67.4805 67.0996 67.4805Z" fill="#1D1D1F"/>
<defs>
<clipPath id="clip0_2_3374">
<rect width="58" height="54" fill="white" transform="translate(6.4375)"/>
</clipPath>
</defs>
</svg>
